<svg xmlns="http://www.w3.org/2000/svg" viewBox="0 0 462.65 170.12"><defs><style>      .cls-1 {        fill: #fff;      }    </style></defs><g><g id="Capa_1"><path class="cls-1" d="M454.57,89.11l-17.82,13.9,9.2,15.92c4.97-8.92,8.02-19.04,8.62-29.82"></path><polygon class="cls-1" points="403.03 126.34 433.71 102.41 425.31 87.88 403.03 126.34"></polygon><path class="cls-1" d="M426.67,85.55l8.9,15.41,19.1-14.9c0-.28.01-.56.01-.85,0-12.08-3.09-23.43-8.51-33.33l-19.51,33.66Z"></path><path class="cls-1" d="M425.32,83.21l19.51-33.67c-11.96-19.92-33.62-33.34-58.46-33.73l38.95,67.4Z"></path><path class="cls-1" d="M434.89,104.46l-35.01,27.3-13.25,22.86c24.57-.47,46-13.71,57.96-33.35l-9.71-16.81Z"></path><path class="cls-1" d="M423.96,85.54l-40.29-69.73c-37.6.85-67.81,31.59-67.81,69.39s30.36,68.68,68.08,69.4l40.03-69.07Z"></path><polygon class="cls-1" points="83.38 49.47 54.87 104.02 36.34 104.02 7.93 49.47 28.26 49.47 46.32 85 64.75 49.47 83.38 49.47"></polygon><rect class="cls-1" x="87.27" y="49.47" width="18.81" height="54.55"></rect><path class="cls-1" d="M114.83,99.11l6.18-11.38c5.89,3.2,14.25,5.38,21.95,5.38s10.83-1.79,10.83-4.44c0-8.65-37.82-2.34-37.82-22.6,0-9.74,9.69-17.69,29.46-17.69,8.65,0,17.58,1.64,24.14,4.75l-5.8,11.45c-6.37-2.8-12.64-4.21-18.43-4.21-7.89,0-10.74,2.18-10.74,4.91,0,8.34,37.72,2.1,37.72,22.21,0,9.51-9.69,17.61-29.46,17.61-10.93,0-21.76-2.42-28.03-6"></path><polygon class="cls-1" points="194.17 61.71 173.74 61.71 173.74 49.47 233.32 49.47 233.32 61.71 212.99 61.71 212.99 104.02 194.17 104.02 194.17 61.71"></polygon><path class="cls-1" d="M276.08,82.04l-8.55-17.45-8.55,17.45h17.1ZM281.59,93.42h-28.13l-5.23,10.6h-19.19l29.36-54.55h18.53l29.46,54.55h-19.58l-5.23-10.6Z"></path><path class="cls-1" d="M47.21,126.22l-3.73-7.62-3.74,7.62h7.47ZM49.61,131.19h-12.28l-2.28,4.63h-8.38l12.82-23.82h8.09l12.86,23.82h-8.55l-2.28-4.63Z"></path><path class="cls-1" d="M75.55,117.3h-4.56v6.98h4.56c3.4,0,5.1-1.29,5.1-3.47s-1.7-3.5-5.1-3.5M75.47,129.49h-4.48v6.33h-8.22v-23.82h13.28c7.92,0,12.9,3.37,12.9,8.81,0,3.51-2.08,6.09-5.68,7.52l6.27,7.49h-8.8l-5.27-6.33Z"></path><path class="cls-1" d="M91.98,123.9c0-7.25,6.76-12.39,15.97-12.39,5.35,0,9.67,1.6,12.49,4.49l-5.23,3.88c-1.83-1.8-4.07-2.79-6.85-2.79-4.77,0-8.09,2.72-8.09,6.81s3.32,6.81,8.09,6.81c2.78,0,5.02-.99,6.85-2.79l5.23,3.88c-2.82,2.89-7.14,4.49-12.49,4.49-9.21,0-15.97-5.14-15.97-12.39"></path><polygon class="cls-1" points="151.74 111.99 151.74 135.81 143.52 135.81 143.52 126.52 132.32 126.52 132.32 135.81 124.1 135.81 124.1 111.99 132.32 111.99 132.32 120.94 143.52 120.94 143.52 111.99 151.74 111.99"></polygon><rect class="cls-1" x="157.55" y="111.99" width="8.22" height="23.82"></rect><polygon class="cls-1" points="177.8 117.34 168.87 117.34 168.87 111.99 194.89 111.99 194.89 117.34 186.01 117.34 186.01 135.82 177.8 135.82 177.8 117.34"></polygon><polygon class="cls-1" points="221.28 130.61 221.28 135.81 197.96 135.81 197.96 111.99 220.74 111.99 220.74 117.2 206.1 117.2 206.1 121.22 219 121.22 219 126.25 206.1 126.25 206.1 130.61 221.28 130.61"></polygon><path class="cls-1" d="M224.31,123.9c0-7.25,6.76-12.39,15.97-12.39,5.35,0,9.67,1.6,12.49,4.49l-5.23,3.88c-1.83-1.8-4.07-2.79-6.85-2.79-4.77,0-8.09,2.72-8.09,6.81s3.32,6.81,8.09,6.81c2.78,0,5.02-.99,6.85-2.79l5.23,3.88c-2.82,2.89-7.14,4.49-12.49,4.49-9.21,0-15.97-5.14-15.97-12.39"></path><polygon class="cls-1" points="262.36 117.34 253.44 117.34 253.44 111.99 279.46 111.99 279.46 117.34 270.58 117.34 270.58 135.82 262.36 135.82 262.36 117.34"></polygon><path class="cls-1" d="M280.42,133.67l2.7-4.97c2.57,1.4,6.22,2.35,9.58,2.35s4.73-.78,4.73-1.94c0-3.78-16.52-1.02-16.52-9.87,0-4.25,4.23-7.73,12.86-7.73,3.78,0,7.68.71,10.54,2.08l-2.53,5c-2.78-1.23-5.52-1.84-8.05-1.84-3.44,0-4.69.95-4.69,2.14,0,3.64,16.47.92,16.47,9.7,0,4.15-4.23,7.69-12.86,7.69-4.77,0-9.5-1.06-12.24-2.62"></path></g></g></svg>